<svg xmlns="http://www.w3.org/2000/svg" width="67" height="67" viewBox="0 0 67 67"><g fill="none"><path fill="#AAA" d="M33.281 0c9.167 0 17.005 3.255 23.516 9.766 6.51 6.51 9.766 14.349 9.766 23.515 0 9.167-3.256 17.005-9.766 23.516-6.51 6.51-14.349 9.766-23.516 9.766-9.166 0-17.005-3.256-23.515-9.766C3.256 50.287 0 42.448 0 33.28c0-9.166 3.255-17.005 9.766-23.515C16.276 3.256 24.115 0 33.28 0h.001z"/><path fill="#FFF" d="M33.281 60c7.292 0 13.568-2.63 18.828-7.89C57.37 46.848 60 40.572 60 33.28c0-7.291-2.63-13.567-7.89-18.828-5.261-5.26-11.537-7.89-18.829-7.89-7.291 0-13.567 2.63-18.828 7.89-5.26 5.26-7.89 11.537-7.89 18.828 0 7.292 2.63 13.568 7.89 18.828S25.99 60 33.281 60z"/><path fill="#AAA" d="M30 23.281v-6.718h6.563v6.718H30zM30 50V30h6.563v20H30z"/></g></svg>