<svg xmlns="http://www.w3.org/2000/svg" viewBox="0 0 51.43 62.86"><defs><style>.a{fill:#081c4a}</style></defs><title>lock-icon</title><path class="a" d="M51.43 32.86v25.71a4.27 4.27 0 0 1-4.29 4.29H4.29a4.13 4.13 0 0 1-3-1.25 4.13 4.13 0 0 1-1.25-3V32.86a4.13 4.13 0 0 1 1.25-3 4.13 4.13 0 0 1 3-1.25h1.42V20a19.25 19.25 0 0 1 5.9-14.11A19.25 19.25 0 0 1 25.71 0a19.25 19.25 0 0 1 14.11 5.89A19.25 19.25 0 0 1 45.71 20v8.57h1.43a4.27 4.27 0 0 1 4.29 4.29zm-37.14-4.29h22.85V20a11 11 0 0 0-3.35-8.08 11 11 0 0 0-8.08-3.35 11 11 0 0 0-8.08 3.35A11 11 0 0 0 14.29 20z"/></svg>